<mxfile host="app.diagrams.net" agent="Mozilla/5.0 (Windows NT 10.0; Win64; x64) AppleWebKit/537.36 (KHTML, like Gecko) Chrome/138.0.0.0 Safari/537.36" version="28.2.5">
  <diagram name="PÃ¡gina-1" id="8K7tpoxA3R_siYjnnS4K">
    <mxGraphModel dx="1186" dy="755" grid="1" gridSize="10" guides="1" tooltips="1" connect="1" arrows="1" fold="1" page="1" pageScale="1" pageWidth="827" pageHeight="1169" math="0" shadow="0">
      <root>
        <mxCell id="0" />
        <mxCell id="1" parent="0" />
        <mxCell id="0lB4Vq09nzgvaA-5Ge1e-1" value="&lt;b id=&quot;docs-internal-guid-815e2284-7fff-eb22-61d4-32d4265464f4&quot; style=&quot;font-weight:normal;&quot;&gt;&lt;span style=&quot;font-size: 12pt; font-family: Calibri, sans-serif; color: rgb(0, 0, 0); background-color: transparent; font-weight: 400; font-style: normal; font-variant: normal; text-decoration: none; vertical-align: baseline; white-space: pre-wrap;&quot;&gt;FILME&lt;/span&gt;&lt;/b&gt;" style="rounded=0;whiteSpace=wrap;html=1;" parent="1" vertex="1">
          <mxGeometry x="90" y="70" width="110" height="40" as="geometry" />
        </mxCell>
        <mxCell id="0lB4Vq09nzgvaA-5Ge1e-2" value="&lt;span id=&quot;docs-internal-guid-1c5a0b90-7fff-3fd1-f450-5679d7504f5a&quot;&gt;&lt;span style=&quot;font-size: 12pt; font-family: Calibri, sans-serif; background-color: transparent; font-variant-numeric: normal; font-variant-east-asian: normal; font-variant-alternates: normal; font-variant-position: normal; font-variant-emoji: normal; text-decoration-skip-ink: none; vertical-align: baseline; white-space-collapse: preserve;&quot;&gt;Codigo&lt;/span&gt;&lt;/span&gt;" style="ellipse;whiteSpace=wrap;html=1;align=center;fontStyle=4;" parent="1" vertex="1">
          <mxGeometry x="80" y="10" width="100" height="40" as="geometry" />
        </mxCell>
        <mxCell id="0lB4Vq09nzgvaA-5Ge1e-3" value="&lt;span id=&quot;docs-internal-guid-a49dc0af-7fff-7599-b2e2-ed2cc0c8c707&quot;&gt;&lt;span style=&quot;font-size: 12pt; font-family: Calibri, sans-serif; background-color: transparent; font-variant-numeric: normal; font-variant-east-asian: normal; font-variant-alternates: normal; font-variant-position: normal; font-variant-emoji: normal; vertical-align: baseline; white-space-collapse: preserve;&quot;&gt;Titulo&lt;/span&gt;&lt;/span&gt;" style="ellipse;whiteSpace=wrap;html=1;" parent="1" vertex="1">
          <mxGeometry y="60" width="80" height="50" as="geometry" />
        </mxCell>
        <mxCell id="0lB4Vq09nzgvaA-5Ge1e-4" value="&lt;span id=&quot;docs-internal-guid-a49dc0af-7fff-7599-b2e2-ed2cc0c8c707&quot;&gt;&lt;span style=&quot;font-size: 12pt; font-family: Calibri, sans-serif; background-color: transparent; font-variant-numeric: normal; font-variant-east-asian: normal; font-variant-alternates: normal; font-variant-position: normal; font-variant-emoji: normal; vertical-align: baseline; white-space-collapse: preserve;&quot;&gt;Ano&lt;/span&gt;&lt;/span&gt;" style="ellipse;whiteSpace=wrap;html=1;" parent="1" vertex="1">
          <mxGeometry x="190" y="10" width="80" height="50" as="geometry" />
        </mxCell>
        <mxCell id="0lB4Vq09nzgvaA-5Ge1e-5" value="&lt;span id=&quot;docs-internal-guid-3ada2ad1-7fff-e562-e526-2cc0d2ab619f&quot;&gt;&lt;span style=&quot;font-size: 12pt; font-family: Calibri, sans-serif; background-color: transparent; font-variant-numeric: normal; font-variant-east-asian: normal; font-variant-alternates: normal; font-variant-position: normal; font-variant-emoji: normal; vertical-align: baseline; white-space-collapse: preserve;&quot;&gt;Direcao&lt;/span&gt;&lt;/span&gt;" style="ellipse;whiteSpace=wrap;html=1;" parent="1" vertex="1">
          <mxGeometry width="70" height="50" as="geometry" />
        </mxCell>
        <mxCell id="0lB4Vq09nzgvaA-5Ge1e-6" value="" style="endArrow=none;html=1;rounded=0;entryX=1;entryY=1;entryDx=0;entryDy=0;exitX=0;exitY=0;exitDx=0;exitDy=0;" parent="1" source="0lB4Vq09nzgvaA-5Ge1e-1" target="0lB4Vq09nzgvaA-5Ge1e-5" edge="1">
          <mxGeometry width="50" height="50" relative="1" as="geometry">
            <mxPoint x="120" y="200" as="sourcePoint" />
            <mxPoint x="170" y="150" as="targetPoint" />
          </mxGeometry>
        </mxCell>
        <mxCell id="0lB4Vq09nzgvaA-5Ge1e-7" value="" style="endArrow=none;html=1;rounded=0;entryX=1;entryY=0.5;entryDx=0;entryDy=0;exitX=0;exitY=0.5;exitDx=0;exitDy=0;" parent="1" source="0lB4Vq09nzgvaA-5Ge1e-1" target="0lB4Vq09nzgvaA-5Ge1e-3" edge="1">
          <mxGeometry width="50" height="50" relative="1" as="geometry">
            <mxPoint x="40" y="210" as="sourcePoint" />
            <mxPoint x="90" y="160" as="targetPoint" />
          </mxGeometry>
        </mxCell>
        <mxCell id="0lB4Vq09nzgvaA-5Ge1e-8" value="" style="endArrow=none;html=1;rounded=0;entryX=0.5;entryY=1;entryDx=0;entryDy=0;exitX=0.5;exitY=0;exitDx=0;exitDy=0;" parent="1" source="0lB4Vq09nzgvaA-5Ge1e-1" target="0lB4Vq09nzgvaA-5Ge1e-2" edge="1">
          <mxGeometry width="50" height="50" relative="1" as="geometry">
            <mxPoint x="110" y="230" as="sourcePoint" />
            <mxPoint x="160" y="180" as="targetPoint" />
          </mxGeometry>
        </mxCell>
        <mxCell id="0lB4Vq09nzgvaA-5Ge1e-9" value="" style="endArrow=none;html=1;rounded=0;entryX=0;entryY=1;entryDx=0;entryDy=0;exitX=0.75;exitY=0;exitDx=0;exitDy=0;" parent="1" source="0lB4Vq09nzgvaA-5Ge1e-1" target="0lB4Vq09nzgvaA-5Ge1e-4" edge="1">
          <mxGeometry width="50" height="50" relative="1" as="geometry">
            <mxPoint x="280" y="160" as="sourcePoint" />
            <mxPoint x="330" y="110" as="targetPoint" />
          </mxGeometry>
        </mxCell>
        <mxCell id="0lB4Vq09nzgvaA-5Ge1e-10" value="&lt;span id=&quot;docs-internal-guid-6415472f-7fff-2308-1182-6f90fa5653c6&quot;&gt;&lt;span style=&quot;font-size: 12pt; font-family: Calibri, sans-serif; background-color: transparent; font-variant-numeric: normal; font-variant-east-asian: normal; font-variant-alternates: normal; font-variant-position: normal; font-variant-emoji: normal; vertical-align: baseline; white-space-collapse: preserve;&quot;&gt;ATOR&lt;/span&gt;&lt;/span&gt;" style="rounded=0;whiteSpace=wrap;html=1;" parent="1" vertex="1">
          <mxGeometry x="594" y="65" width="110" height="40" as="geometry" />
        </mxCell>
        <mxCell id="0lB4Vq09nzgvaA-5Ge1e-11" value="&lt;span id=&quot;docs-internal-guid-c499b43a-7fff-dcf8-9cac-567bfef0eff2&quot;&gt;&lt;span style=&quot;font-size: 12pt; font-family: Calibri, sans-serif; background-color: transparent; font-variant-numeric: normal; font-variant-east-asian: normal; font-variant-alternates: normal; font-variant-position: normal; font-variant-emoji: normal; text-decoration-skip-ink: none; vertical-align: baseline; white-space-collapse: preserve;&quot;&gt;NContribuinte&lt;/span&gt;&lt;/span&gt;" style="ellipse;whiteSpace=wrap;html=1;align=center;fontStyle=4;" parent="1" vertex="1">
          <mxGeometry x="601" y="5" width="100" height="40" as="geometry" />
        </mxCell>
        <mxCell id="0lB4Vq09nzgvaA-5Ge1e-12" value="&lt;span id=&quot;docs-internal-guid-5a438c75-7fff-9c65-5d62-f699ca10962f&quot;&gt;&lt;span style=&quot;font-size: 12pt; font-family: Calibri, sans-serif; background-color: transparent; font-variant-numeric: normal; font-variant-east-asian: normal; font-variant-alternates: normal; font-variant-position: normal; font-variant-emoji: normal; vertical-align: baseline; white-space-collapse: preserve;&quot;&gt;Idade&lt;/span&gt;&lt;/span&gt;" style="ellipse;whiteSpace=wrap;html=1;dashed=1;dashPattern=12 12;" parent="1" vertex="1">
          <mxGeometry x="740" y="60" width="87" height="65" as="geometry" />
        </mxCell>
        <mxCell id="0lB4Vq09nzgvaA-5Ge1e-13" value="&lt;span id=&quot;docs-internal-guid-d925fdd6-7fff-79f9-32c5-916fdf529162&quot;&gt;&lt;span style=&quot;font-size: 12pt; font-family: Calibri, sans-serif; background-color: transparent; font-variant-numeric: normal; font-variant-east-asian: normal; font-variant-alternates: normal; font-variant-position: normal; font-variant-emoji: normal; vertical-align: baseline; white-space-collapse: preserve;&quot;&gt;DataNascimento&lt;/span&gt;&lt;/span&gt;" style="ellipse;whiteSpace=wrap;html=1;" parent="1" vertex="1">
          <mxGeometry x="710" y="5" width="117" height="50" as="geometry" />
        </mxCell>
        <mxCell id="0lB4Vq09nzgvaA-5Ge1e-14" value="&lt;span id=&quot;docs-internal-guid-c050b3b0-7fff-f0a9-ab74-1cc61df7f707&quot;&gt;&lt;span style=&quot;font-size: 12pt; font-family: Calibri, sans-serif; background-color: transparent; font-variant-numeric: normal; font-variant-east-asian: normal; font-variant-alternates: normal; font-variant-position: normal; font-variant-emoji: normal; vertical-align: baseline; white-space-collapse: preserve;&quot;&gt;Nome&lt;/span&gt;&lt;/span&gt;" style="ellipse;whiteSpace=wrap;html=1;" parent="1" vertex="1">
          <mxGeometry x="524" width="70" height="50" as="geometry" />
        </mxCell>
        <mxCell id="0lB4Vq09nzgvaA-5Ge1e-15" value="" style="endArrow=none;html=1;rounded=0;entryX=1;entryY=1;entryDx=0;entryDy=0;exitX=0;exitY=0;exitDx=0;exitDy=0;" parent="1" source="0lB4Vq09nzgvaA-5Ge1e-10" target="0lB4Vq09nzgvaA-5Ge1e-14" edge="1">
          <mxGeometry width="50" height="50" relative="1" as="geometry">
            <mxPoint x="534" y="230" as="sourcePoint" />
            <mxPoint x="584" y="180" as="targetPoint" />
          </mxGeometry>
        </mxCell>
        <mxCell id="0lB4Vq09nzgvaA-5Ge1e-17" value="" style="endArrow=none;html=1;rounded=0;entryX=0.5;entryY=1;entryDx=0;entryDy=0;exitX=0.5;exitY=0;exitDx=0;exitDy=0;" parent="1" source="0lB4Vq09nzgvaA-5Ge1e-10" target="0lB4Vq09nzgvaA-5Ge1e-11" edge="1">
          <mxGeometry width="50" height="50" relative="1" as="geometry">
            <mxPoint x="524" y="260" as="sourcePoint" />
            <mxPoint x="574" y="210" as="targetPoint" />
          </mxGeometry>
        </mxCell>
        <mxCell id="0lB4Vq09nzgvaA-5Ge1e-18" value="" style="endArrow=none;html=1;rounded=0;entryX=0;entryY=1;entryDx=0;entryDy=0;exitX=0.75;exitY=0;exitDx=0;exitDy=0;" parent="1" source="0lB4Vq09nzgvaA-5Ge1e-10" target="0lB4Vq09nzgvaA-5Ge1e-13" edge="1">
          <mxGeometry width="50" height="50" relative="1" as="geometry">
            <mxPoint x="694" y="190" as="sourcePoint" />
            <mxPoint x="744" y="140" as="targetPoint" />
          </mxGeometry>
        </mxCell>
        <mxCell id="0lB4Vq09nzgvaA-5Ge1e-20" value="&lt;span id=&quot;docs-internal-guid-80e61f0a-7fff-ccb0-1d2e-0b29a3cf2f2e&quot;&gt;&lt;span style=&quot;font-size: 12pt; font-family: Calibri, sans-serif; background-color: transparent; font-variant-numeric: normal; font-variant-east-asian: normal; font-variant-alternates: normal; font-variant-position: normal; font-variant-emoji: normal; vertical-align: baseline; white-space-collapse: preserve;&quot;&gt;Salario&lt;/span&gt;&lt;/span&gt;" style="ellipse;whiteSpace=wrap;html=1;" parent="1" vertex="1">
          <mxGeometry x="454" y="20" width="70" height="50" as="geometry" />
        </mxCell>
        <mxCell id="0lB4Vq09nzgvaA-5Ge1e-21" value="&lt;span id=&quot;docs-internal-guid-c050b3b0-7fff-f0a9-ab74-1cc61df7f707&quot;&gt;&lt;span style=&quot;font-size: 12pt; font-family: Calibri, sans-serif; background-color: transparent; font-variant-numeric: normal; font-variant-east-asian: normal; font-variant-alternates: normal; font-variant-position: normal; font-variant-emoji: normal; vertical-align: baseline; white-space-collapse: preserve;&quot;&gt;Nome&lt;/span&gt;&lt;/span&gt;" style="ellipse;whiteSpace=wrap;html=1;" parent="1" vertex="1">
          <mxGeometry x="740" y="130" width="70" height="45" as="geometry" />
        </mxCell>
        <mxCell id="0lB4Vq09nzgvaA-5Ge1e-23" value="" style="endArrow=none;html=1;rounded=0;entryX=1;entryY=1;entryDx=0;entryDy=0;exitX=0;exitY=0;exitDx=0;exitDy=0;" parent="1" source="0lB4Vq09nzgvaA-5Ge1e-10" target="0lB4Vq09nzgvaA-5Ge1e-20" edge="1">
          <mxGeometry width="50" height="50" relative="1" as="geometry">
            <mxPoint x="510" y="180" as="sourcePoint" />
            <mxPoint x="560" y="130" as="targetPoint" />
          </mxGeometry>
        </mxCell>
        <mxCell id="0lB4Vq09nzgvaA-5Ge1e-24" value="" style="endArrow=none;html=1;rounded=0;entryX=0;entryY=0.5;entryDx=0;entryDy=0;exitX=1;exitY=0.25;exitDx=0;exitDy=0;dashed=1;dashPattern=12 12;" parent="1" source="0lB4Vq09nzgvaA-5Ge1e-10" target="0lB4Vq09nzgvaA-5Ge1e-12" edge="1">
          <mxGeometry width="50" height="50" relative="1" as="geometry">
            <mxPoint x="640" y="290" as="sourcePoint" />
            <mxPoint x="690" y="240" as="targetPoint" />
          </mxGeometry>
        </mxCell>
        <mxCell id="0lB4Vq09nzgvaA-5Ge1e-25" value="" style="endArrow=none;html=1;rounded=0;entryX=0;entryY=0.5;entryDx=0;entryDy=0;exitX=1;exitY=0.75;exitDx=0;exitDy=0;" parent="1" source="0lB4Vq09nzgvaA-5Ge1e-10" target="0lB4Vq09nzgvaA-5Ge1e-21" edge="1">
          <mxGeometry width="50" height="50" relative="1" as="geometry">
            <mxPoint x="530" y="310" as="sourcePoint" />
            <mxPoint x="580" y="260" as="targetPoint" />
          </mxGeometry>
        </mxCell>
        <mxCell id="0lB4Vq09nzgvaA-5Ge1e-26" value="&lt;span id=&quot;docs-internal-guid-45fd0d4c-7fff-7de2-0f86-fea19dea1c58&quot;&gt;&lt;span style=&quot;font-size: 12pt; font-family: Calibri, sans-serif; background-color: transparent; font-variant-numeric: normal; font-variant-east-asian: normal; font-variant-alternates: normal; font-variant-position: normal; font-variant-emoji: normal; vertical-align: baseline; white-space-collapse: preserve;&quot;&gt;REALIZADOR&lt;/span&gt;&lt;/span&gt;" style="rounded=0;whiteSpace=wrap;html=1;" parent="1" vertex="1">
          <mxGeometry x="344" y="370" width="110" height="40" as="geometry" />
        </mxCell>
        <mxCell id="0lB4Vq09nzgvaA-5Ge1e-27" value="&lt;span id=&quot;docs-internal-guid-c499b43a-7fff-dcf8-9cac-567bfef0eff2&quot;&gt;&lt;span style=&quot;font-size: 12pt; font-family: Calibri, sans-serif; background-color: transparent; font-variant-numeric: normal; font-variant-east-asian: normal; font-variant-alternates: normal; font-variant-position: normal; font-variant-emoji: normal; text-decoration-skip-ink: none; vertical-align: baseline; white-space-collapse: preserve;&quot;&gt;NContribuinte&lt;/span&gt;&lt;/span&gt;" style="ellipse;whiteSpace=wrap;html=1;align=center;fontStyle=4;" parent="1" vertex="1">
          <mxGeometry x="270" y="465" width="100" height="40" as="geometry" />
        </mxCell>
        <mxCell id="0lB4Vq09nzgvaA-5Ge1e-28" value="&lt;span id=&quot;docs-internal-guid-5a438c75-7fff-9c65-5d62-f699ca10962f&quot;&gt;&lt;span style=&quot;font-size: 12pt; font-family: Calibri, sans-serif; background-color: transparent; font-variant-numeric: normal; font-variant-east-asian: normal; font-variant-alternates: normal; font-variant-position: normal; font-variant-emoji: normal; vertical-align: baseline; white-space-collapse: preserve;&quot;&gt;Idade&lt;/span&gt;&lt;/span&gt;" style="ellipse;whiteSpace=wrap;html=1;dashed=1;dashPattern=12 12;" parent="1" vertex="1">
          <mxGeometry x="437" y="450" width="93" height="60" as="geometry" />
        </mxCell>
        <mxCell id="0lB4Vq09nzgvaA-5Ge1e-29" value="&lt;span id=&quot;docs-internal-guid-d925fdd6-7fff-79f9-32c5-916fdf529162&quot;&gt;&lt;span style=&quot;font-size: 12pt; font-family: Calibri, sans-serif; background-color: transparent; font-variant-numeric: normal; font-variant-east-asian: normal; font-variant-alternates: normal; font-variant-position: normal; font-variant-emoji: normal; vertical-align: baseline; white-space-collapse: preserve;&quot;&gt;DataNascimento&lt;/span&gt;&lt;/span&gt;" style="ellipse;whiteSpace=wrap;html=1;" parent="1" vertex="1">
          <mxGeometry x="337" y="495" width="117" height="50" as="geometry" />
        </mxCell>
        <mxCell id="0lB4Vq09nzgvaA-5Ge1e-30" value="" style="endArrow=none;html=1;rounded=0;entryX=1;entryY=0;entryDx=0;entryDy=0;exitX=0;exitY=1;exitDx=0;exitDy=0;" parent="1" source="0lB4Vq09nzgvaA-5Ge1e-26" target="0lB4Vq09nzgvaA-5Ge1e-38" edge="1">
          <mxGeometry width="50" height="50" relative="1" as="geometry">
            <mxPoint x="280" y="505" as="sourcePoint" />
            <mxPoint x="330" y="318" as="targetPoint" />
          </mxGeometry>
        </mxCell>
        <mxCell id="0lB4Vq09nzgvaA-5Ge1e-31" value="" style="endArrow=none;html=1;rounded=0;entryX=1;entryY=0;entryDx=0;entryDy=0;exitX=0.25;exitY=1;exitDx=0;exitDy=0;" parent="1" source="0lB4Vq09nzgvaA-5Ge1e-26" target="0lB4Vq09nzgvaA-5Ge1e-27" edge="1">
          <mxGeometry width="50" height="50" relative="1" as="geometry">
            <mxPoint x="270" y="535" as="sourcePoint" />
            <mxPoint x="320" y="485" as="targetPoint" />
          </mxGeometry>
        </mxCell>
        <mxCell id="0lB4Vq09nzgvaA-5Ge1e-32" value="" style="endArrow=none;html=1;rounded=0;entryX=0.5;entryY=0;entryDx=0;entryDy=0;exitX=0.5;exitY=1;exitDx=0;exitDy=0;" parent="1" source="0lB4Vq09nzgvaA-5Ge1e-26" target="0lB4Vq09nzgvaA-5Ge1e-29" edge="1">
          <mxGeometry width="50" height="50" relative="1" as="geometry">
            <mxPoint x="440" y="465" as="sourcePoint" />
            <mxPoint x="490" y="415" as="targetPoint" />
          </mxGeometry>
        </mxCell>
        <mxCell id="0lB4Vq09nzgvaA-5Ge1e-34" value="&lt;span id=&quot;docs-internal-guid-c050b3b0-7fff-f0a9-ab74-1cc61df7f707&quot;&gt;&lt;span style=&quot;font-size: 12pt; font-family: Calibri, sans-serif; background-color: transparent; font-variant-numeric: normal; font-variant-east-asian: normal; font-variant-alternates: normal; font-variant-position: normal; font-variant-emoji: normal; vertical-align: baseline; white-space-collapse: preserve;&quot;&gt;Nome&lt;/span&gt;&lt;/span&gt;" style="ellipse;whiteSpace=wrap;html=1;" parent="1" vertex="1">
          <mxGeometry x="454" y="400" width="70" height="45" as="geometry" />
        </mxCell>
        <mxCell id="0lB4Vq09nzgvaA-5Ge1e-36" value="" style="endArrow=none;html=1;rounded=0;entryX=0;entryY=0.5;entryDx=0;entryDy=0;exitX=0.75;exitY=1;exitDx=0;exitDy=0;dashed=1;dashPattern=8 8;" parent="1" source="0lB4Vq09nzgvaA-5Ge1e-26" target="0lB4Vq09nzgvaA-5Ge1e-28" edge="1">
          <mxGeometry width="50" height="50" relative="1" as="geometry">
            <mxPoint x="386" y="565" as="sourcePoint" />
            <mxPoint x="436" y="515" as="targetPoint" />
          </mxGeometry>
        </mxCell>
        <mxCell id="0lB4Vq09nzgvaA-5Ge1e-37" value="" style="endArrow=none;html=1;rounded=0;entryX=0;entryY=0.5;entryDx=0;entryDy=0;exitX=1;exitY=1;exitDx=0;exitDy=0;" parent="1" source="0lB4Vq09nzgvaA-5Ge1e-26" target="0lB4Vq09nzgvaA-5Ge1e-34" edge="1">
          <mxGeometry width="50" height="50" relative="1" as="geometry">
            <mxPoint x="490" y="400" as="sourcePoint" />
            <mxPoint x="326" y="535" as="targetPoint" />
          </mxGeometry>
        </mxCell>
        <mxCell id="0lB4Vq09nzgvaA-5Ge1e-38" value="&lt;span id=&quot;docs-internal-guid-c050b3b0-7fff-f0a9-ab74-1cc61df7f707&quot;&gt;&lt;span style=&quot;font-size: 12pt; font-family: Calibri, sans-serif; background-color: transparent; font-variant-numeric: normal; font-variant-east-asian: normal; font-variant-alternates: normal; font-variant-position: normal; font-variant-emoji: normal; vertical-align: baseline; white-space-collapse: preserve;&quot;&gt;Nome&lt;/span&gt;&lt;/span&gt;" style="ellipse;whiteSpace=wrap;html=1;" parent="1" vertex="1">
          <mxGeometry x="280" y="410" width="70" height="50" as="geometry" />
        </mxCell>
        <mxCell id="0lB4Vq09nzgvaA-5Ge1e-39" value="&lt;span id=&quot;docs-internal-guid-3d1653a0-7fff-4349-0afc-a52193a4a132&quot;&gt;&lt;span style=&quot;font-size: 12pt; font-family: Calibri, sans-serif; background-color: transparent; font-variant-numeric: normal; font-variant-east-asian: normal; font-variant-alternates: normal; font-variant-position: normal; font-variant-emoji: normal; vertical-align: baseline; white-space-collapse: preserve;&quot;&gt;PRODUTOR&lt;/span&gt;&lt;/span&gt;" style="rounded=0;whiteSpace=wrap;html=1;" parent="1" vertex="1">
          <mxGeometry x="670" y="370" width="110" height="40" as="geometry" />
        </mxCell>
        <mxCell id="0lB4Vq09nzgvaA-5Ge1e-40" value="&lt;span id=&quot;docs-internal-guid-165ad30c-7fff-60be-198a-03f38afca0aa&quot;&gt;&lt;span style=&quot;font-size: 12pt; font-family: Calibri, sans-serif; background-color: transparent; font-variant-numeric: normal; font-variant-east-asian: normal; font-variant-alternates: normal; font-variant-position: normal; font-variant-emoji: normal; vertical-align: baseline; white-space-collapse: preserve;&quot;&gt;ORCAMENTO&lt;/span&gt;&lt;/span&gt;" style="rounded=0;whiteSpace=wrap;html=1;" parent="1" vertex="1">
          <mxGeometry x="60" y="360" width="110" height="40" as="geometry" />
        </mxCell>
        <mxCell id="0lB4Vq09nzgvaA-5Ge1e-41" value="&lt;span id=&quot;docs-internal-guid-1e6c0511-7fff-9fca-7ff2-03e77b7e201c&quot;&gt;&lt;span style=&quot;font-size: 12pt; font-family: Calibri, sans-serif; background-color: transparent; font-variant-numeric: normal; font-variant-east-asian: normal; font-variant-alternates: normal; font-variant-position: normal; font-variant-emoji: normal; text-decoration-skip-ink: none; vertical-align: baseline; white-space-collapse: preserve;&quot;&gt;Id&lt;/span&gt;&lt;/span&gt;" style="ellipse;whiteSpace=wrap;html=1;align=center;fontStyle=4;" parent="1" vertex="1">
          <mxGeometry x="10" y="400" width="40" height="40" as="geometry" />
        </mxCell>
        <mxCell id="0lB4Vq09nzgvaA-5Ge1e-43" value="&lt;span id=&quot;docs-internal-guid-c3d513ac-7fff-f8e7-2725-ab80e7daf949&quot;&gt;&lt;span style=&quot;font-size: 12pt; font-family: Calibri, sans-serif; background-color: transparent; font-variant-numeric: normal; font-variant-east-asian: normal; font-variant-alternates: normal; font-variant-position: normal; font-variant-emoji: normal; vertical-align: baseline; white-space-collapse: preserve;&quot;&gt;Valor&lt;/span&gt;&lt;/span&gt;" style="ellipse;whiteSpace=wrap;html=1;" parent="1" vertex="1">
          <mxGeometry x="160" y="410" width="50" height="40" as="geometry" />
        </mxCell>
        <mxCell id="0lB4Vq09nzgvaA-5Ge1e-44" value="&lt;span id=&quot;docs-internal-guid-97f9ce97-7fff-d372-d03e-e07249d8e8b6&quot;&gt;&lt;span style=&quot;font-size: 12pt; font-family: Calibri, sans-serif; background-color: transparent; font-variant-numeric: normal; font-variant-east-asian: normal; font-variant-alternates: normal; font-variant-position: normal; font-variant-emoji: normal; vertical-align: baseline; white-space-collapse: preserve;&quot;&gt;Aprovado ?&lt;/span&gt;&lt;/span&gt;" style="ellipse;whiteSpace=wrap;html=1;" parent="1" vertex="1">
          <mxGeometry x="50" y="410" width="100" height="50" as="geometry" />
        </mxCell>
        <mxCell id="0lB4Vq09nzgvaA-5Ge1e-45" value="&lt;span id=&quot;docs-internal-guid-c499b43a-7fff-dcf8-9cac-567bfef0eff2&quot;&gt;&lt;span style=&quot;font-size: 12pt; font-family: Calibri, sans-serif; background-color: transparent; font-variant-numeric: normal; font-variant-east-asian: normal; font-variant-alternates: normal; font-variant-position: normal; font-variant-emoji: normal; text-decoration-skip-ink: none; vertical-align: baseline; white-space-collapse: preserve;&quot;&gt;NContribuinte&lt;/span&gt;&lt;/span&gt;" style="ellipse;whiteSpace=wrap;html=1;align=center;fontStyle=4;" parent="1" vertex="1">
          <mxGeometry x="727" y="435" width="100" height="40" as="geometry" />
        </mxCell>
        <mxCell id="0lB4Vq09nzgvaA-5Ge1e-46" value="&lt;span id=&quot;docs-internal-guid-c050b3b0-7fff-f0a9-ab74-1cc61df7f707&quot;&gt;&lt;span style=&quot;font-size: 12pt; font-family: Calibri, sans-serif; background-color: transparent; font-variant-numeric: normal; font-variant-east-asian: normal; font-variant-alternates: normal; font-variant-position: normal; font-variant-emoji: normal; vertical-align: baseline; white-space-collapse: preserve;&quot;&gt;Nome&lt;/span&gt;&lt;/span&gt;" style="ellipse;whiteSpace=wrap;html=1;" parent="1" vertex="1">
          <mxGeometry x="580" y="435" width="64" height="30" as="geometry" />
        </mxCell>
        <mxCell id="0lB4Vq09nzgvaA-5Ge1e-47" value="&lt;span id=&quot;docs-internal-guid-5a438c75-7fff-9c65-5d62-f699ca10962f&quot;&gt;&lt;span style=&quot;font-size: 12pt; font-family: Calibri, sans-serif; background-color: transparent; font-variant-numeric: normal; font-variant-east-asian: normal; font-variant-alternates: normal; font-variant-position: normal; font-variant-emoji: normal; vertical-align: baseline; white-space-collapse: preserve;&quot;&gt;Idade&lt;/span&gt;&lt;/span&gt;" style="ellipse;whiteSpace=wrap;html=1;dashed=1;dashPattern=12 12;" parent="1" vertex="1">
          <mxGeometry x="600" y="470" width="65" height="40" as="geometry" />
        </mxCell>
        <mxCell id="0lB4Vq09nzgvaA-5Ge1e-48" value="&lt;span id=&quot;docs-internal-guid-d925fdd6-7fff-79f9-32c5-916fdf529162&quot;&gt;&lt;span style=&quot;font-size: 12pt; font-family: Calibri, sans-serif; background-color: transparent; font-variant-numeric: normal; font-variant-east-asian: normal; font-variant-alternates: normal; font-variant-position: normal; font-variant-emoji: normal; vertical-align: baseline; white-space-collapse: preserve;&quot;&gt;DataNascimento&lt;/span&gt;&lt;/span&gt;" style="ellipse;whiteSpace=wrap;html=1;" parent="1" vertex="1">
          <mxGeometry x="680" y="480" width="117" height="40" as="geometry" />
        </mxCell>
        <mxCell id="0lB4Vq09nzgvaA-5Ge1e-49" value="&lt;span id=&quot;docs-internal-guid-70a4a648-7fff-fadc-f8a3-f19f3f8d83e5&quot;&gt;&lt;span style=&quot;font-size: 12pt; font-family: Calibri, sans-serif; background-color: transparent; font-variant-numeric: normal; font-variant-east-asian: normal; font-variant-alternates: normal; font-variant-position: normal; font-variant-emoji: normal; vertical-align: baseline; white-space-collapse: preserve;&quot;&gt;ENTRA_EM &lt;/span&gt;&lt;/span&gt;" style="rhombus;whiteSpace=wrap;html=1;" parent="1" vertex="1">
          <mxGeometry x="332" y="70" width="100" height="60" as="geometry" />
        </mxCell>
        <mxCell id="0lB4Vq09nzgvaA-5Ge1e-50" value="&lt;span id=&quot;docs-internal-guid-e9f00866-7fff-3a86-4756-fbc6b9b9ebce&quot;&gt;&lt;span style=&quot;font-size: 12pt; font-family: Calibri, sans-serif; background-color: transparent; font-variant-numeric: normal; font-variant-east-asian: normal; font-variant-alternates: normal; font-variant-position: normal; font-variant-emoji: normal; vertical-align: baseline; white-space-collapse: preserve;&quot;&gt;REALIZA&lt;/span&gt;&lt;/span&gt;" style="rhombus;whiteSpace=wrap;html=1;" parent="1" vertex="1">
          <mxGeometry x="361" y="240" width="76" height="60" as="geometry" />
        </mxCell>
        <mxCell id="0lB4Vq09nzgvaA-5Ge1e-51" value="&lt;span id=&quot;docs-internal-guid-36789861-7fff-92a0-07ba-5bb289ee6487&quot;&gt;&lt;span style=&quot;font-size: 12pt; font-family: Calibri, sans-serif; background-color: transparent; font-variant-numeric: normal; font-variant-east-asian: normal; font-variant-alternates: normal; font-variant-position: normal; font-variant-emoji: normal; vertical-align: baseline; white-space-collapse: preserve;&quot;&gt;PRODUTOR_DE&lt;/span&gt;&lt;/span&gt;" style="rhombus;whiteSpace=wrap;html=1;" parent="1" vertex="1">
          <mxGeometry x="332" y="160" width="130" height="60" as="geometry" />
        </mxCell>
        <mxCell id="0lB4Vq09nzgvaA-5Ge1e-52" value="&lt;span id=&quot;docs-internal-guid-87538622-7fff-ea3c-db77-05362fa72fff&quot;&gt;&lt;span style=&quot;font-size: 12pt; font-family: Calibri, sans-serif; background-color: transparent; font-variant-numeric: normal; font-variant-east-asian: normal; font-variant-alternates: normal; font-variant-position: normal; font-variant-emoji: normal; vertical-align: baseline; white-space-collapse: preserve;&quot;&gt;POSSUEM &lt;/span&gt;&lt;/span&gt;" style="rhombus;whiteSpace=wrap;html=1;" parent="1" vertex="1">
          <mxGeometry x="72.5" y="210" width="85" height="60" as="geometry" />
        </mxCell>
        <mxCell id="0lB4Vq09nzgvaA-5Ge1e-55" value="" style="endArrow=none;html=1;rounded=0;entryX=0;entryY=0.75;entryDx=0;entryDy=0;exitX=1;exitY=0.5;exitDx=0;exitDy=0;" parent="1" source="0lB4Vq09nzgvaA-5Ge1e-49" target="0lB4Vq09nzgvaA-5Ge1e-10" edge="1">
          <mxGeometry width="50" height="50" relative="1" as="geometry">
            <mxPoint x="460" y="170" as="sourcePoint" />
            <mxPoint x="510" y="120" as="targetPoint" />
          </mxGeometry>
        </mxCell>
        <mxCell id="dgRP-x1t_Kcbrk2lC0J6-2" value="M" style="edgeLabel;html=1;align=center;verticalAlign=middle;resizable=0;points=[];" vertex="1" connectable="0" parent="0lB4Vq09nzgvaA-5Ge1e-55">
          <mxGeometry x="-0.0495" relative="1" as="geometry">
            <mxPoint y="-8" as="offset" />
          </mxGeometry>
        </mxCell>
        <mxCell id="0lB4Vq09nzgvaA-5Ge1e-56" value="" style="shape=link;html=1;rounded=0;entryX=0;entryY=0.5;entryDx=0;entryDy=0;exitX=1;exitY=0.75;exitDx=0;exitDy=0;" parent="1" source="0lB4Vq09nzgvaA-5Ge1e-1" target="0lB4Vq09nzgvaA-5Ge1e-49" edge="1">
          <mxGeometry width="100" relative="1" as="geometry">
            <mxPoint x="190" y="150" as="sourcePoint" />
            <mxPoint x="290" y="150" as="targetPoint" />
          </mxGeometry>
        </mxCell>
        <mxCell id="0lB4Vq09nzgvaA-5Ge1e-59" value="N" style="edgeLabel;html=1;align=center;verticalAlign=middle;resizable=0;points=[];" parent="0lB4Vq09nzgvaA-5Ge1e-56" vertex="1" connectable="0">
          <mxGeometry x="-0.0606" relative="1" as="geometry">
            <mxPoint x="-2" y="-10" as="offset" />
          </mxGeometry>
        </mxCell>
        <mxCell id="0lB4Vq09nzgvaA-5Ge1e-57" value="" style="endArrow=none;html=1;rounded=0;entryX=0.75;entryY=1;entryDx=0;entryDy=0;exitX=0;exitY=0.5;exitDx=0;exitDy=0;" parent="1" source="0lB4Vq09nzgvaA-5Ge1e-50" target="0lB4Vq09nzgvaA-5Ge1e-1" edge="1">
          <mxGeometry width="50" height="50" relative="1" as="geometry">
            <mxPoint x="240" y="210" as="sourcePoint" />
            <mxPoint x="160" y="140" as="targetPoint" />
            <Array as="points">
              <mxPoint x="173" y="270" />
            </Array>
          </mxGeometry>
        </mxCell>
        <mxCell id="dgRP-x1t_Kcbrk2lC0J6-12" value="1" style="edgeLabel;html=1;align=center;verticalAlign=middle;resizable=0;points=[];" vertex="1" connectable="0" parent="0lB4Vq09nzgvaA-5Ge1e-57">
          <mxGeometry x="-0.2529" y="-3" relative="1" as="geometry">
            <mxPoint x="-1" y="-7" as="offset" />
          </mxGeometry>
        </mxCell>
        <mxCell id="0lB4Vq09nzgvaA-5Ge1e-60" value="" style="endArrow=none;html=1;rounded=0;entryX=0.5;entryY=1;entryDx=0;entryDy=0;exitX=0.5;exitY=0;exitDx=0;exitDy=0;" parent="1" source="0lB4Vq09nzgvaA-5Ge1e-26" target="0lB4Vq09nzgvaA-5Ge1e-50" edge="1">
          <mxGeometry width="50" height="50" relative="1" as="geometry">
            <mxPoint x="370" y="390" as="sourcePoint" />
            <mxPoint x="420" y="340" as="targetPoint" />
          </mxGeometry>
        </mxCell>
        <mxCell id="0lB4Vq09nzgvaA-5Ge1e-61" value="1" style="edgeLabel;html=1;align=center;verticalAlign=middle;resizable=0;points=[];" parent="0lB4Vq09nzgvaA-5Ge1e-60" vertex="1" connectable="0">
          <mxGeometry x="0.3429" y="1" relative="1" as="geometry">
            <mxPoint x="12" y="7" as="offset" />
          </mxGeometry>
        </mxCell>
        <mxCell id="dgRP-x1t_Kcbrk2lC0J6-3" value="" style="endArrow=none;html=1;rounded=0;entryX=1;entryY=0.5;entryDx=0;entryDy=0;exitX=0.5;exitY=0;exitDx=0;exitDy=0;" edge="1" parent="1" source="0lB4Vq09nzgvaA-5Ge1e-39" target="0lB4Vq09nzgvaA-5Ge1e-51">
          <mxGeometry width="50" height="50" relative="1" as="geometry">
            <mxPoint x="670" y="340" as="sourcePoint" />
            <mxPoint x="720" y="290" as="targetPoint" />
            <Array as="points">
              <mxPoint x="725" y="190" />
            </Array>
          </mxGeometry>
        </mxCell>
        <mxCell id="dgRP-x1t_Kcbrk2lC0J6-5" value="" style="shape=link;html=1;rounded=0;entryX=0.25;entryY=1;entryDx=0;entryDy=0;exitX=0.5;exitY=0;exitDx=0;exitDy=0;" edge="1" parent="1" source="0lB4Vq09nzgvaA-5Ge1e-52" target="0lB4Vq09nzgvaA-5Ge1e-1">
          <mxGeometry width="100" relative="1" as="geometry">
            <mxPoint x="50" y="170" as="sourcePoint" />
            <mxPoint x="120" y="130" as="targetPoint" />
          </mxGeometry>
        </mxCell>
        <mxCell id="dgRP-x1t_Kcbrk2lC0J6-8" value="1" style="edgeLabel;html=1;align=center;verticalAlign=middle;resizable=0;points=[];" vertex="1" connectable="0" parent="dgRP-x1t_Kcbrk2lC0J6-5">
          <mxGeometry x="-0.2" relative="1" as="geometry">
            <mxPoint x="14" y="5" as="offset" />
          </mxGeometry>
        </mxCell>
        <mxCell id="dgRP-x1t_Kcbrk2lC0J6-6" value="" style="shape=link;html=1;rounded=0;entryX=0.5;entryY=1;entryDx=0;entryDy=0;exitX=0.5;exitY=0;exitDx=0;exitDy=0;" edge="1" parent="1" source="0lB4Vq09nzgvaA-5Ge1e-40" target="0lB4Vq09nzgvaA-5Ge1e-52">
          <mxGeometry width="100" relative="1" as="geometry">
            <mxPoint x="10" y="310" as="sourcePoint" />
            <mxPoint x="110" y="310" as="targetPoint" />
          </mxGeometry>
        </mxCell>
        <mxCell id="dgRP-x1t_Kcbrk2lC0J6-7" value="1" style="edgeLabel;html=1;align=center;verticalAlign=middle;resizable=0;points=[];" vertex="1" connectable="0" parent="dgRP-x1t_Kcbrk2lC0J6-6">
          <mxGeometry y="4" relative="1" as="geometry">
            <mxPoint x="9" y="5" as="offset" />
          </mxGeometry>
        </mxCell>
        <mxCell id="dgRP-x1t_Kcbrk2lC0J6-9" value="" style="shape=link;html=1;rounded=0;entryX=0;entryY=0.5;entryDx=0;entryDy=0;exitX=1;exitY=1;exitDx=0;exitDy=0;" edge="1" parent="1" source="0lB4Vq09nzgvaA-5Ge1e-1" target="0lB4Vq09nzgvaA-5Ge1e-51">
          <mxGeometry width="100" relative="1" as="geometry">
            <mxPoint x="200" y="130" as="sourcePoint" />
            <mxPoint x="310" y="170" as="targetPoint" />
            <Array as="points">
              <mxPoint x="200" y="190" />
            </Array>
          </mxGeometry>
        </mxCell>
        <mxCell id="dgRP-x1t_Kcbrk2lC0J6-10" value="N" style="text;html=1;align=center;verticalAlign=middle;resizable=0;points=[];autosize=1;strokeColor=none;fillColor=none;" vertex="1" parent="1">
          <mxGeometry x="230" y="160" width="30" height="30" as="geometry" />
        </mxCell>
        <mxCell id="dgRP-x1t_Kcbrk2lC0J6-11" value="1" style="text;html=1;align=center;verticalAlign=middle;resizable=0;points=[];autosize=1;strokeColor=none;fillColor=none;" vertex="1" parent="1">
          <mxGeometry x="587" y="168" width="30" height="30" as="geometry" />
        </mxCell>
        <mxCell id="dgRP-x1t_Kcbrk2lC0J6-13" value="" style="endArrow=none;html=1;rounded=0;entryX=0;entryY=1;entryDx=0;entryDy=0;exitX=1;exitY=0;exitDx=0;exitDy=0;" edge="1" parent="1" source="0lB4Vq09nzgvaA-5Ge1e-46" target="0lB4Vq09nzgvaA-5Ge1e-39">
          <mxGeometry width="50" height="50" relative="1" as="geometry">
            <mxPoint x="620" y="460" as="sourcePoint" />
            <mxPoint x="670" y="430" as="targetPoint" />
          </mxGeometry>
        </mxCell>
        <mxCell id="dgRP-x1t_Kcbrk2lC0J6-14" value="" style="endArrow=none;html=1;rounded=0;entryX=0.25;entryY=1;entryDx=0;entryDy=0;exitX=1;exitY=0;exitDx=0;exitDy=0;dashed=1;dashPattern=12 12;" edge="1" parent="1" source="0lB4Vq09nzgvaA-5Ge1e-47" target="0lB4Vq09nzgvaA-5Ge1e-39">
          <mxGeometry width="50" height="50" relative="1" as="geometry">
            <mxPoint x="650" y="480" as="sourcePoint" />
            <mxPoint x="690" y="440" as="targetPoint" />
          </mxGeometry>
        </mxCell>
        <mxCell id="dgRP-x1t_Kcbrk2lC0J6-15" value="" style="endArrow=none;html=1;rounded=0;entryX=0.5;entryY=1;entryDx=0;entryDy=0;exitX=0;exitY=0;exitDx=0;exitDy=0;" edge="1" parent="1" source="0lB4Vq09nzgvaA-5Ge1e-48" target="0lB4Vq09nzgvaA-5Ge1e-39">
          <mxGeometry width="50" height="50" relative="1" as="geometry">
            <mxPoint x="670" y="610" as="sourcePoint" />
            <mxPoint x="710" y="430" as="targetPoint" />
          </mxGeometry>
        </mxCell>
        <mxCell id="dgRP-x1t_Kcbrk2lC0J6-16" value="" style="endArrow=none;html=1;rounded=0;entryX=0.75;entryY=1;entryDx=0;entryDy=0;exitX=0.5;exitY=0;exitDx=0;exitDy=0;" edge="1" parent="1" source="0lB4Vq09nzgvaA-5Ge1e-45" target="0lB4Vq09nzgvaA-5Ge1e-39">
          <mxGeometry width="50" height="50" relative="1" as="geometry">
            <mxPoint x="660" y="610" as="sourcePoint" />
            <mxPoint x="710" y="560" as="targetPoint" />
          </mxGeometry>
        </mxCell>
        <mxCell id="dgRP-x1t_Kcbrk2lC0J6-17" value="" style="endArrow=none;html=1;rounded=0;entryX=0;entryY=0.75;entryDx=0;entryDy=0;exitX=0.5;exitY=0;exitDx=0;exitDy=0;" edge="1" parent="1" source="0lB4Vq09nzgvaA-5Ge1e-41" target="0lB4Vq09nzgvaA-5Ge1e-40">
          <mxGeometry width="50" height="50" relative="1" as="geometry">
            <mxPoint x="20" y="540" as="sourcePoint" />
            <mxPoint x="70" y="490" as="targetPoint" />
          </mxGeometry>
        </mxCell>
        <mxCell id="dgRP-x1t_Kcbrk2lC0J6-18" value="" style="endArrow=none;html=1;rounded=0;entryX=0.5;entryY=1;entryDx=0;entryDy=0;exitX=0.5;exitY=0;exitDx=0;exitDy=0;" edge="1" parent="1" source="0lB4Vq09nzgvaA-5Ge1e-44" target="0lB4Vq09nzgvaA-5Ge1e-40">
          <mxGeometry width="50" height="50" relative="1" as="geometry">
            <mxPoint x="40" y="560" as="sourcePoint" />
            <mxPoint x="90" y="510" as="targetPoint" />
          </mxGeometry>
        </mxCell>
        <mxCell id="dgRP-x1t_Kcbrk2lC0J6-19" value="" style="endArrow=none;html=1;rounded=0;entryX=1;entryY=1;entryDx=0;entryDy=0;exitX=0;exitY=0;exitDx=0;exitDy=0;" edge="1" parent="1" source="0lB4Vq09nzgvaA-5Ge1e-43" target="0lB4Vq09nzgvaA-5Ge1e-40">
          <mxGeometry width="50" height="50" relative="1" as="geometry">
            <mxPoint x="120" y="540" as="sourcePoint" />
            <mxPoint x="170" y="490" as="targetPoint" />
          </mxGeometry>
        </mxCell>
      </root>
    </mxGraphModel>
  </diagram>
</mxfile>
